Genre:Crime | Drama
Language:Romanian
IMDb:http://www.imdb.com/title/tt1337051/
Source:DVD
Sample:yes
Subtitles:English,hardsubbed
.............................................
General
Complete name : Police.Adjective.2009.DVDRip.H264.FEEL-FREE
Format : MPEG-4
Format profile : Base Media
Codec ID : isom
File size : 1.29 GiB
Duration : 1h 50mn
Overall bit rate : 1 676 Kbps
..............................................
Video
ID : 2
Format : AVC
Format/Info : Advanced Video Codec
Format profile : Baseline@L1.3
Format settings, CABAC : No
Format settings, ReFrames : 1 frame
Codec ID : avc1
Codec ID/Info : Advanced Video Coding
Duration : 1h 50mn
Bit rate mode : Variable
Bit rate : 1 518 Kbps
Width : 704 pixels
Height : 416 pixels
Display aspect ratio : 1.692
Frame rate mode : Constant
Frame rate : 25.000 fps
Resolution : 24 bits
Colorimetry : 4:2:0
Scan type : Progressive
Bits/(Pixel*Frame) : 0.207
Stream size : 1.17 GiB (91%)
...................................................
Audio
ID : 1
Format : AAC
Format/Info : Advanced Audio Codec
Format version : Version 4
Format profile : LC
Format settings, SBR : No
Codec ID : 40
Duration : 1h 50mn
Bit rate mode : Constant
Bit rate : 152 Kbps
Channel(s) : 2 channels
Channel positions : L R
Sampling rate : 44.1 KHz
Resolution : 16 bits
Stream size : 120 MiB (9%)
....................................................
Plot:
A police officer refuses to arrest a young man for offering drugs to his friends
...................................................